<?xml version="1.0" encoding="utf-8"?>
<!-- Generator: Adobe Illustrator 16.0.0, SVG Export Plug-In . SVG Version: 6.00 Build 0)  -->
<!DOCTYPE svg PUBLIC "-//W3C//DTD SVG 1.1//EN" "http://www.w3.org/Graphics/SVG/1.1/DTD/svg11.dtd">
<svg version="1.1" id="Layer_1" xmlns="http://www.w3.org/2000/svg" xmlns:xlink="http://www.w3.org/1999/xlink" x="0px" y="0px"
	 width="16px" height="16px" viewBox="0 0 16 16" enable-background="new 0 0 16 16" xml:space="preserve">
<path fill="#BF95FB" fill-opacity="0.9961" d="M8.088,1.002C7.986,1,7.885,1.001,7.783,1.004C7.55,1.011,7.317,1.03,7.086,1.061
	C4.113,1.452,1.72,3.694,1.135,6.635C0.675,8.953,1.416,11.348,3.105,13H2v2h4c0.552,0,1-0.447,1-1c0-0.082-0.01-0.163-0.03-0.242
	l-1-4l-1.941,0.486l0.281,1.121C3.47,10.445,3.002,9.246,3,8c0-2.761,2.239-5,5-5c2.762,0,5,2.239,5,5l0,0
	c-0.002,1.326-0.529,2.597-1.467,3.533l1.416,1.416c2.12-2.121,2.654-5.355,1.328-8.045C13.112,2.543,10.721,1.035,8.088,1.002
	L8.088,1.002z M8,6C6.896,6,6,6.896,6,8s0.896,2,2,2s2-0.896,2-2S9.104,6,8,6z"/>
</svg>
