<?xml version="1.0" encoding="utf-8"?>
<!-- Generator: Adobe Illustrator 16.0.0, SVG Export Plug-In . SVG Version: 6.00 Build 0)  -->
<!DOCTYPE svg PUBLIC "-//W3C//DTD SVG 1.1//EN" "http://www.w3.org/Graphics/SVG/1.1/DTD/svg11.dtd">
<svg version="1.1" id="Layer_1" xmlns="http://www.w3.org/2000/svg" xmlns:xlink="http://www.w3.org/1999/xlink" x="0px" y="0px"
	 width="16px" height="16px" viewBox="0 0 16 16" enable-background="new 0 0 16 16" xml:space="preserve">
<path fill="#BF95FB" fill-opacity="0.9961" d="M7.984,1.002C7.725,1.006,7.477,1.11,7.293,1.293l-2,2l1.414,1.414L8,3.414
	l1.293,1.293l1.414-1.414l-2-2C8.516,1.103,8.255,0.997,7.984,1.002L7.984,1.002z M3.293,5.293l-2,2c-0.39,0.391-0.39,1.023,0,1.414
	l2,2l1.414-1.414L3.414,8l1.293-1.293L3.293,5.293L3.293,5.293z M12.707,5.293l-1.414,1.414L12.586,8l-1.293,1.293l1.414,1.414l2-2
	c0.391-0.391,0.391-1.023,0-1.414L12.707,5.293L12.707,5.293z M8,6C6.896,6,6,6.896,6,8s0.896,2,2,2s2-0.896,2-2S9.104,6,8,6z
	 M6.707,11.293l-1.414,1.414l2,2c0.391,0.391,1.023,0.391,1.414,0l2-2l-1.414-1.414L8,12.586L6.707,11.293L6.707,11.293z"/>
</svg>
