<?xml version="1.0" encoding="utf-8"?>
<!-- Generator: Adobe Illustrator 16.0.0, SVG Export Plug-In . SVG Version: 6.00 Build 0)  -->
<!DOCTYPE svg PUBLIC "-//W3C//DTD SVG 1.1//EN" "http://www.w3.org/Graphics/SVG/1.1/DTD/svg11.dtd">
<svg version="1.1" id="Layer_1" xmlns="http://www.w3.org/2000/svg" xmlns:xlink="http://www.w3.org/1999/xlink" x="0px" y="0px"
	 width="16px" height="16px" viewBox="0 0 16 16" enable-background="new 0 0 16 16" xml:space="preserve">
<path fill="#BF95FB" fill-opacity="0.9961" d="M9,1C8.448,1,8,1.448,8,2s0.448,1,1,1h2.586l-1.293,1.293l1.414,1.414L13,4.414V7
	c0,0.552,0.447,1,1,1s1-0.448,1-1V2c0-0.552-0.447-1-1-1H9z M8,6C6.896,6,6,6.896,6,8s0.896,2,2,2s2-0.896,2-2S9.104,6,8,6z M2,8
	C1.448,8,1,8.448,1,9v5c0,0.553,0.448,1,1,1h5c0.552,0,1-0.447,1-1s-0.448-1-1-1H4.414l1.293-1.293l-1.414-1.414L3,11.586V9
	C3,8.448,2.552,8,2,8z"/>
</svg>
